<?xml version="1.0" standalone="no"?><!DOCTYPE svg PUBLIC "-//W3C//DTD SVG 1.1//EN" "http://www.w3.org/Graphics/SVG/1.1/DTD/svg11.dtd"><svg t="1730475960597" class="icon" viewBox="0 0 1024 1024" version="1.1" xmlns="http://www.w3.org/2000/svg" p-id="7253" xmlns:xlink="http://www.w3.org/1999/xlink" width="64" height="64"><path d="M522.8 892.5l-7.7-3c-2.6-1-63.6-25-132.3-71.8-40.6-27.7-75.4-57.6-103.4-88.9-35.6-39.9-60.5-82.2-73.9-125.9l-0.9-2.9V127.9h624.9V598l-0.7 2.6c-11.7 42-35 83.4-69.2 123.1-26.8 31.2-60.5 61.4-99.9 89.9-66.8 48.2-126.9 74.5-129.4 75.6l-7.5 3.3z m-278-298.6c27.3 85.4 101.9 150.5 159.9 190.2C456 819.2 503.9 841.2 522 849c17.9-8.5 65-32.2 115-68.4 56.6-40.9 128.7-106.6 152.6-188.2V167.9H244.8v426z" fill="#13227a" p-id="7254"></path><path d="M282.4 216.1v360.6c44 144 239 219.9 239 219.9S713.6 713 752 575.3V216.1H282.4z" fill="#13227a" p-id="7255"></path><path d="M521.2 216.1v580.4c0.1 0 0.2 0.1 0.2 0.1S713.6 713 752 575.3V216.1H521.2z" fill="#13227a" p-id="7256"></path><path d="M606.8 496.3H599c-4.3 0-7.9-3.5-7.9-7.9 0-4.3 3.5-7.9 7.9-7.9h31.5c4.3 0 7.9 3.5 7.9 7.9 0 4.3-3.5 7.9-7.9 7.9H606.8z" fill="#13227a" p-id="7257"></path><path d="M551.6 543.6H457c-4.3 0-7.9-3.5-7.9-7.9V362.9c0-4.3 3.5-7.9 7.9-7.9h94.6c4.3 0 7.9 3.5 7.9 7.9V410c0 4.3 3.5 7.9 7.9 7.9h47.3c4.3 0 7.9 3.5 7.9 7.9v31.4c0 4.3 3.5 7.9 7.9 7.9h15.8c4.3 0 7.9-3.5 7.9-7.9v-58.3c0-2.1-0.8-4.1-2.4-5.6l-68.6-67.4c-1.5-1.4-3.5-2.3-5.5-2.3H425.4c-4.3 0-7.9 3.5-7.9 7.9v235.7c0 4.3 3.5 7.9 7.9 7.9h126.2c4.3 0 7.9-3.5 7.9-7.9v-15.7c0-4.3-3.6-7.9-7.9-7.9z" fill="#13227a" p-id="7258"></path><path d="M574.7 528.5v-23.8c0-4.4 3.6-7.9 7.9-7.9 4.4 0 7.9 3.6 7.9 7.9v15.8c0 4.4 3.6 7.9 7.9 7.9h47.7c4.4 0 7.9 3.6 7.9 7.9v31.8c0 4.4-3.6 7.9-7.9 7.9h-63.5c-4.4 0-7.9-3.6-7.9-7.9v-39.6z" fill="#13227a" p-id="7259"></path></svg>